<svg xmlns="http://www.w3.org/2000/svg" xmlns:xlink="http://www.w3.org/1999/xlink" version="1.1" width="3171.4285714285716" height="998.6460662886855" viewBox="0 -111.42857142857143 3171.4285714285716 998.6460662886855">
<g transform="scale(8.571428571428571) translate(10, 10)">
<defs id="SvgjsDefs8575w"><linearGradient id="SvgjsLinearGradient8582w"><stop stop-color="#b98947" offset="0"/><stop stop-color="#faf0a1" offset="1"/></linearGradient></defs><g id="SvgjsG8576w" featureKey="YvLwfh-0" transform="matrix(0.5764209262347675,0,0,0.5764209262347675,146.47152165972196,-32.82888074202454)" fill="#ffffff"><path d="M91,35.7c-3.5,0-6.8,0.1-9.5,0.2c-0.7-0.9-1.6-1.5-2.7-1.5c-1.2,0-2.3,0.8-3,2c-0.1,0-0.3,0-0.4,0.1  c-2.6-0.5-5.9-0.8-9.9-0.8c-10,0-12.3,4.6-2.3,4.6c4.6,0,8.7-0.2,11.9-0.4c0.3,0.8,1.3,1.3,2.4,1.5V43c-1.4,0.3-2.5,0.9-2.5,2  c0,0.3,0,0.7,0.1,1H55.9c-1.6-1.3-3.7-2.1-5.9-2.1s-4.3,0.8-5.9,2.1H26.6c0-0.3,0.1-0.6,0.1-1c0-1.1-1.1-1.8-2.5-2v-1.6  c1.2-0.2,2.2-0.8,2.5-1.6c2.2,0.3,4.9,0.5,7.9,0.5c10,0,12.3-4.6,2.3-4.6c-4.2,0-8.1,0.1-11.2,0.3c-0.7-1-1.7-1.6-2.7-1.6  c-1.2,0-2.2,0.7-2.9,1.9c-2.4-0.4-5.3-0.6-8.7-0.6c-10,0-12.3,4.6-2.3,4.6c3.8,0,7.3-0.1,10.3-0.3c0.3,0.8,1.3,1.2,2.4,1.4V43  c-1.4,0.3-2.5,0.9-2.5,2c0,2.9,1.7,5.2,3.8,5.2c0.8,0,1.5-0.3,2.1-0.9h7.3l-10.6,22c-0.5,1-0.1,2.3,1,2.7c1,0.5,2.3,0.1,2.7-1  l11-22.9c0.1-0.3,0.2-0.6,0.2-0.9h4.9c-0.4,0.9-0.7,2-0.8,3.1h-1.1c-2,0-3.7,1.7-3.7,3.7v11.1c0,2,1.7,3.7,3.7,3.7h4.4  c1.4,1.9,3.6,3.2,6.1,3.2s4.8-1.3,6.1-3.2h4.4c2,0,3.7-1.7,3.7-3.7V56.2c0-2-1.7-3.7-3.7-3.7h-1.1c-0.1-1.1-0.4-2.1-0.8-3.1h4.9  c0,0.3,0.1,0.6,0.2,0.9l11,22.9c0.5,1,1.7,1.5,2.7,1c1-0.5,1.5-1.7,1-2.7l-10.6-22h9c0.6,0.5,1.3,0.9,2.1,0.9c2.1,0,3.8-2.3,3.8-5.2  c0-1.1-1.1-1.8-2.5-2v-1.6c1.1-0.2,2.1-0.7,2.4-1.4c1.9,0.2,4,0.3,6.3,0.3C98.8,40.3,101,35.7,91,35.7z M42.2,57.3  c-1.5,0-2.8-0.7-2.8-1.5s1.3-1.5,2.8-1.5s2.8,0.7,2.8,1.5S43.7,57.3,42.2,57.3z M50,68.9c-2.9,0-5.2-2.3-5.2-5.2  c0-2.9,2.3-5.2,5.2-5.2s5.2,2.3,5.2,5.2C55.2,66.5,52.9,68.9,50,68.9z"/></g><g id="SvgjsG8577w" featureKey="JZW510-0" transform="matrix(1.1314408112657914,0,0,1.1314408112657914,0.15840183227007545,36.91284830590692)" fill="#ffffff"><path d="M8.5 5.720000000000001 l5.34 14.28 l-3.26 0 l-1.08 -3.18 l-5.34 0 l-1.12 3.18 l-3.18 0 l5.42 -14.28 l3.22 0 z M6.84 9.24 l-1.86 5.24 l3.7 0 l-1.8 -5.24 l-0.04 0 z M19.560000000000002 9.38 c0.97334 0 1.84 0.22664 2.6 0.67998 s1.3567 1.11 1.79 1.97 s0.65 1.85 0.65 2.97 c0 0.10666 -0.0066602 0.28 -0.02 0.52 l-7.46 0 c0.02666 0.82666 0.24332 1.47 0.64998 1.93 s1.03 0.69 1.87 0.69 c0.52 0 0.99666 -0.13 1.43 -0.39 s0.71 -0.57666 0.83 -0.95 l2.5 0 c-0.73334 2.32 -2.3466 3.48 -4.84 3.48 c-0.94666 -0.01334 -1.8233 -0.22 -2.63 -0.62 s-1.45 -1.0233 -1.93 -1.87 s-0.72 -1.83 -0.72 -2.95 c0 -1.0533 0.24334 -2.0134 0.73 -2.88 s1.1333 -1.5133 1.94 -1.94 s1.6767 -0.64 2.61 -0.64 z M21.740000000000002 13.719999999999999 c-0.13334 -0.77334 -0.38 -1.3333 -0.74 -1.68 s-0.87334 -0.52 -1.54 -0.52 c-0.69334 0 -1.24 0.19666 -1.64 0.59 s-0.63334 0.93 -0.7 1.61 l4.62 0 z M32.3 9.38 c0.24 0 0.44668 0.03334 0.62002 0.1 l0 2.64 c-0.30666 -0.06666 -0.64666 -0.1 -1.02 -0.1 c-1.8667 0 -2.8 1.1067 -2.8 3.32 l0 4.66 l-2.84 0 l0 -10.34 l2.7 0 l0 1.92 l0.04 0 c0.28 -0.66666 0.72334 -1.2 1.33 -1.6 s1.2633 -0.6 1.97 -0.6 z M36.96 5.720000000000001 l0 2.34 l-2.84 0 l0 -2.34 l2.84 0 z M36.96 9.66 l0 10.34 l-2.84 0 l0 -10.34 l2.84 0 z M43.96000000000001 9.38 c3.0134 0.01334 4.52 0.9933 4.52 2.94 l0 5.48 c0 1.0133 0.12 1.7467 0.36 2.2 l-2.88 0 c-0.10666 -0.32 -0.17332 -0.65334 -0.19998 -1 c-0.84 0.85334 -2 1.28 -3.48 1.28 c-1.08 0 -1.9367 -0.27334 -2.57 -0.82 s-0.95 -1.3067 -0.95 -2.28 c0 -0.94666 0.3 -1.68 0.9 -2.2 c0.61334 -0.54666 1.7267 -0.89332 3.34 -1.04 c1.1467 -0.12 1.8733 -0.27 2.18 -0.45 s0.46 -0.45666 0.46 -0.83 c0 -0.46666 -0.14 -0.81332 -0.42 -1.04 s-0.74666 -0.34 -1.4 -0.34 c-0.6 0 -1.0533 0.12334 -1.36 0.37 s-0.48666 0.64332 -0.54 1.19 l-2.84 0 c0.06666 -1.1333 0.53332 -1.9933 1.4 -2.58 s2.0266 -0.88 3.48 -0.88 z M41.6 17.06 c0 0.88 0.58 1.32 1.74 1.32 c1.52 -0.01334 2.2866 -0.79334 2.3 -2.34 l0 -1.1 c-0.22666 0.22666 -0.8 0.39332 -1.72 0.49998 c-0.8 0.09334 -1.3867 0.25668 -1.76 0.49002 s-0.56 0.61 -0.56 1.13 z M53.60000000000001 5.720000000000001 l0 14.28 l-2.84 0 l0 -14.28 l2.84 0 z M68.16000000000001 5.720000000000001 c1.52 0 2.72 0.41334 3.6 1.24 s1.32 1.94 1.32 3.34 c0 1.4133 -0.44 2.53 -1.32 3.35 s-2.0734 1.23 -3.58 1.23 l-3.34 0 l0 5.12 l-3.14 0 l0 -14.28 l6.46 0 z M67.34 12.440000000000001 c0.90666 0 1.5833 -0.16666 2.03 -0.5 s0.67 -0.88 0.67 -1.64 c0 -0.73334 -0.21666 -1.2733 -0.65 -1.62 s-1.11 -0.52 -2.03 -0.52 l-2.52 0 l0 4.28 l2.5 0 z M80.78000000000002 9.38 c0.24 0 0.44668 0.03334 0.62002 0.1 l0 2.64 c-0.30666 -0.06666 -0.64666 -0.1 -1.02 -0.1 c-1.8667 0 -2.8 1.1067 -2.8 3.32 l0 4.66 l-2.84 0 l0 -10.34 l2.7 0 l0 1.92 l0.04 0 c0.28 -0.66666 0.72334 -1.2 1.33 -1.6 s1.2633 -0.6 1.97 -0.6 z M87.18 9.38 c1.6533 0 2.96 0.50334 3.92 1.51 s1.44 2.3234 1.44 3.95 c0 1.64 -0.49 2.9566 -1.47 3.95 s-2.2766 1.49 -3.89 1.49 c-1.64 0 -2.94 -0.50334 -3.9 -1.51 s-1.44 -2.3166 -1.44 -3.93 c0 -1.6667 0.49 -2.9934 1.47 -3.98 s2.27 -1.48 3.87 -1.48 z M84.68 14.84 c0 1.0533 0.21334 1.8666 0.64 2.44 s1.0467 0.86 1.86 0.86 c0.84 0 1.47 -0.29334 1.89 -0.88 s0.63 -1.3933 0.63 -2.42 c0 -1.0667 -0.21666 -1.8867 -0.65 -2.46 s-1.0633 -0.86 -1.89 -0.86 c-0.8 0 -1.4133 0.28666 -1.84 0.86 s-0.64 1.3933 -0.64 2.46 z M98.46000000000001 5.720000000000001 c0.24 0 0.74 0.02668 1.5 0.08002 l0 2.12 c-0.37334 -0.04 -0.71334 -0.06 -1.02 -0.06 c-0.41334 0 -0.7 0.09 -0.86 0.27 s-0.24 0.49 -0.24 0.93 l0 0.6 l1.96 0 l0 1.9 l-1.96 0 l0 8.44 l-2.84 0 l0 -8.44 l-1.7 0 l0 -1.9 l1.7 0 l0 -0.76 c0 -1.0133 0.30334 -1.7967 0.91 -2.35 s1.4567 -0.83 2.55 -0.83 z M105.82000000000001 9.38 c0.97334 0 1.84 0.22664 2.6 0.67998 s1.3567 1.11 1.79 1.97 s0.65 1.85 0.65 2.97 c0 0.10666 -0.0066602 0.28 -0.02 0.52 l-7.46 0 c0.02666 0.82666 0.24332 1.47 0.64998 1.93 s1.03 0.69 1.87 0.69 c0.52 0 0.99666 -0.13 1.43 -0.39 s0.71 -0.57666 0.83 -0.95 l2.5 0 c-0.73334 2.32 -2.3466 3.48 -4.84 3.48 c-0.94666 -0.01334 -1.8233 -0.22 -2.63 -0.62 s-1.45 -1.0233 -1.93 -1.87 s-0.72 -1.83 -0.72 -2.95 c0 -1.0533 0.24334 -2.0134 0.73 -2.88 s1.1333 -1.5133 1.94 -1.94 s1.6767 -0.64 2.61 -0.64 z M108 13.719999999999999 c-0.13334 -0.77334 -0.38 -1.3333 -0.74 -1.68 s-0.87334 -0.52 -1.54 -0.52 c-0.69334 0 -1.24 0.19666 -1.64 0.59 s-0.63334 0.93 -0.7 1.61 l4.62 0 z M157.32000000000002 9.38 c1.32 0 2.2766 0.33338 2.87 1 s0.89 1.7267 0.89 3.18 l0 6.44 l-2.84 0 l0 -5.86 c0 -0.85334 -0.13666 -1.4867 -0.41 -1.9 s-0.74334 -0.62 -1.41 -0.62 c-0.77334 0 -1.3333 0.23334 -1.68 0.7 s-0.52 1.2333 -0.52 2.3 l0 5.38 l-2.84 0 l0 -10.34 l2.7 0 l0 1.44 l0.06 0 c0.70666 -1.1467 1.7667 -1.72 3.18 -1.72 z M177.64000000000001 5.720000000000001 l0 14.28 l-2.84 0 l0 -14.28 l2.84 0 z"/></g><g id="SvgjsG8578w" featureKey="zdvuGz-0" transform="matrix(0.4583596441446122,0,0,0.4583596441446122,34.40413248446829,74.29567871152294)" fill="#ffffff"><path d="M9.06 7.58 l-6.02 0 l0 4.76 l4.6 0 c0.2 0 0.3 0.1 0.3 0.3 l0 0.98 c0 0.2 -0.1 0.3 -0.3 0.3 l-4.6 0 l0 4.5 l6.12 0 c0.2 0 0.3 0.1 0.3 0.3 l0 0.98 c0 0.2 -0.1 0.3 -0.3 0.3 l-7.56 0 c-0.2 0 -0.3 -0.1 -0.3 -0.3 l0 -13.4 c0 -0.2 0.1 -0.3 0.3 -0.3 l7.46 0 c0.2 0 0.3 0.1 0.3 0.3 l0 0.98 c0 0.2 -0.1 0.3 -0.3 0.3 z M25.8065 18.42 c0.2 0 0.3 0.1 0.3 0.3 l0 0.98 c0 0.2 -0.1 0.3 -0.3 0.3 l-6.94 0 c-0.2 0 -0.3 -0.1 -0.3 -0.3 l0 -13.4 c0 -0.2 0.1 -0.3 0.3 -0.3 l1.14 0 c0.2 0 0.3 0.1 0.3 0.3 l0 12.12 l5.5 0 z M42.873000000000005 7.58 l-6.02 0 l0 4.76 l4.6 0 c0.2 0 0.3 0.1 0.3 0.3 l0 0.98 c0 0.2 -0.1 0.3 -0.3 0.3 l-4.6 0 l0 4.5 l6.12 0 c0.2 0 0.3 0.1 0.3 0.3 l0 0.98 c0 0.2 -0.1 0.3 -0.3 0.3 l-7.56 0 c-0.2 0 -0.3 -0.1 -0.3 -0.3 l0 -13.4 c0 -0.2 0.1 -0.3 0.3 -0.3 l7.46 0 c0.2 0 0.3 0.1 0.3 0.3 l0 0.98 c0 0.2 -0.1 0.3 -0.3 0.3 z M51.6595 6.34 c-0.06 -0.22 0.04 -0.34 0.24 -0.34 l1.12 0 c0.2 0 0.32 0.12 0.38 0.34 l3.4 11.54 l3.42 -11.54 c0.06 -0.22 0.16 -0.34 0.36 -0.34 l1.12 0 c0.2 0 0.32 0.12 0.26 0.34 l-4.06 13.34 c-0.06 0.2 -0.2 0.32 -0.38 0.32 l-1.44 0 c-0.18 0 -0.32 -0.12 -0.38 -0.32 z M78.58600000000001 19.66 c0.08 0.22 -0.04 0.34 -0.24 0.34 l-1.12 0 c-0.2 0 -0.3 -0.12 -0.38 -0.34 l-0.76 -2.6 l-5.28 0 l-0.76 2.6 c-0.06 0.22 -0.18 0.34 -0.38 0.34 l-1.12 0 c-0.2 0 -0.3 -0.12 -0.24 -0.34 l4.04 -13.34 c0.06 -0.2 0.2 -0.32 0.38 -0.32 l1.42 0 c0.18 0 0.32 0.12 0.38 0.32 z M71.24600000000001 15.54 l4.4 0 l-2.2 -7.42 z M95.3125 6 c0.2 0 0.3 0.1 0.3 0.3 l0 0.98 c0 0.2 -0.1 0.3 -0.3 0.3 l-3.16 0 l0 12.12 c0 0.2 -0.1 0.3 -0.3 0.3 l-1.14 0 c-0.2 0 -0.3 -0.1 -0.3 -0.3 l0 -12.12 l-3.18 0 c-0.2 0 -0.3 -0.1 -0.3 -0.3 l0 -0.98 c0 -0.2 0.1 -0.3 0.3 -0.3 l4.62 0 l3.46 0 z M104.619 6.300000000000001 c0 -0.2 0.1 -0.3 0.3 -0.3 l1.16 0 c0.2 0 0.3 0.1 0.3 0.3 l0 13.4 c0 0.2 -0.1 0.3 -0.3 0.3 l-1.16 0 c-0.2 0 -0.3 -0.1 -0.3 -0.3 l0 -13.4 z M125.04549999999999 6 c0.2 0 0.3 0.1 0.3 0.3 l0 13.4 c0 0.2 -0.1 0.3 -0.3 0.3 l-1.76 0 c-0.16 0 -0.28 -0.06 -0.36 -0.22 l-5.2 -11.24 l0 11.16 c0 0.2 -0.1 0.3 -0.3 0.3 l-1.14 0 c-0.2 0 -0.3 -0.1 -0.3 -0.3 l0 -13.4 c0 -0.2 0.1 -0.3 0.3 -0.3 l1.76 0 c0.16 0 0.28 0.06 0.36 0.22 l5.2 11.22 l0 -11.14 c0 -0.2 0.1 -0.3 0.3 -0.3 l1.14 0 z M308.517 6.300000000000001 c0 -0.2 0.1 -0.3 0.3 -0.3 l1.16 0 c0.2 0 0.3 0.1 0.3 0.3 l0 13.4 c0 0.2 -0.1 0.3 -0.3 0.3 l-1.16 0 c-0.2 0 -0.3 -0.1 -0.3 -0.3 l0 -13.4 z M543.308 6.300000000000001 c0 -0.2 0.1 -0.3 0.3 -0.3 l1.16 0 c0.2 0 0.3 0.1 0.3 0.3 l0 13.4 c0 0.2 -0.1 0.3 -0.3 0.3 l-1.16 0 c-0.2 0 -0.3 -0.1 -0.3 -0.3 l0 -13.4 z M572.7009999999999 6.300000000000001 c0 -0.2 0.1 -0.3 0.3 -0.3 l1.16 0 c0.2 0 0.3 0.1 0.3 0.3 l0 13.4 c0 0.2 -0.1 0.3 -0.3 0.3 l-1.16 0 c-0.2 0 -0.3 -0.1 -0.3 -0.3 l0 -13.4 z M589.4875 5.9 c2.64 0 4.02 1.5 4.02 4.16 l0 5.88 c0 2.66 -1.38 4.16 -4.02 4.16 l-1.7 0 c-2.64 0 -4.02 -1.5 -4.02 -4.16 l0 -5.88 c0 -2.66 1.38 -4.16 4.02 -4.16 l1.7 0 z M591.7674999999999 15.940000000000001 l0 -5.88 c0 -1.84 -0.68 -2.58 -2.28 -2.58 l-1.7 0 c-1.62 0 -2.28 0.74 -2.28 2.58 l0 5.88 c0 1.84 0.66 2.58 2.28 2.58 l1.7 0 c1.6 0 2.28 -0.74 2.28 -2.58 z M611.8739999999999 6 c0.2 0 0.3 0.1 0.3 0.3 l0 13.4 c0 0.2 -0.1 0.3 -0.3 0.3 l-1.76 0 c-0.16 0 -0.28 -0.06 -0.36 -0.22 l-5.2 -11.24 l0 11.16 c0 0.2 -0.1 0.3 -0.3 0.3 l-1.14 0 c-0.2 0 -0.3 -0.1 -0.3 -0.3 l0 -13.4 c0 -0.2 0.1 -0.3 0.3 -0.3 l1.76 0 c0.16 0 0.28 0.06 0.36 0.22 l5.2 11.22 l0 -11.14 c0 -0.2 0.1 -0.3 0.3 -0.3 l1.14 0 z"/></g>
</g>
</svg>